# xmcd
#
# Track frame offsets:
#  150
#  30150
#  50717
#  62825
#  102455
#  126210
#  144570
#  168795
#  191230
#  213047
#  237450
#  257830
#  301770
#
# Disc length: 4290 seconds
#
# Revision: 1
# Processed by: cddbd v1.5.1PL2 Copyright (c) Steve Scherf et al.
# Submitted via: Collectorz.com_Music_Collector 6.10
#
DISCID=b610c00d
DTITLE=Duke Robillard - La Palette Bleue
DYEAR=1999
DGENRE=Blues Rock
TTITLE0=Pony Blues
TTITLE1=Fishnet
TTITLE2=Don't Fool With My Love
TTITLE3=Love Sick
TTITLE4=Addiction
TTITLE5=Jumpin' Rockin' Rhythm
TTITLE6=Good Man
TTITLE7=You're The Only One
TTITLE8=Hurt Me
TTITLE9=I May Be Crazy
TTITLE10=I Don't Want To Say Best Wishes
TTITLE11=Big Bottom Blues
TTITLE12=How Long Baby
EXTD=
EXTT0=
EXTT1=
EXTT2=
EXTT3=
EXTT4=
EXTT5=
EXTT6=
EXTT7=
EXTT8=
EXTT9=
EXTT10=
EXTT11=
EXTT12=
PLAYORDER=
